<svg width="25" height="24" viewBox="0 0 25 24" fill="none" xmlns="http://www.w3.org/2000/svg">
<g id="vuesax/linear/global">
<g id="global">
<path id="Vector" d="M12.2268 22C17.7497 22 22.2268 17.5228 22.2268 12C22.2268 6.47715 17.7497 2 12.2268 2C6.70396 2 2.22681 6.47715 2.22681 12C2.22681 17.5228 6.70396 22 12.2268 22Z" stroke="white" stroke-width="1.5" stroke-linecap="round" stroke-linejoin="round"/>
<path id="Vector_2" d="M8.22678 3H9.22678C7.27678 8.84 7.27678 15.16 9.22678 21H8.22678" stroke="white" stroke-width="1.5" stroke-linecap="round" stroke-linejoin="round"/>
<path id="Vector_3" d="M15.2268 3C17.1768 8.84 17.1768 15.16 15.2268 21" stroke="white" stroke-width="1.5" stroke-linecap="round" stroke-linejoin="round"/>
<path id="Vector_4" d="M3.22681 16V15C9.06681 16.95 15.3868 16.95 21.2268 15V16" stroke="white" stroke-width="1.5" stroke-linecap="round" stroke-linejoin="round"/>
<path id="Vector_5" d="M3.22681 8.99998C9.06681 7.04998 15.3868 7.04998 21.2268 8.99998" stroke="white" stroke-width="1.5" stroke-linecap="round" stroke-linejoin="round"/>
</g>
</g>
</svg>
