<svg width="31" height="30" viewBox="0 0 31 30" fill="none" xmlns="http://www.w3.org/2000/svg">
<g id="mdi:cart">
<path id="Vector" d="M21.4768 22.5C20.0893 22.5 18.9768 23.6125 18.9768 25C18.9768 25.663 19.2402 26.2989 19.709 26.7678C20.1779 27.2366 20.8138 27.5 21.4768 27.5C22.1398 27.5 22.7757 27.2366 23.2446 26.7678C23.7134 26.2989 23.9768 25.663 23.9768 25C23.9768 24.337 23.7134 23.7011 23.2446 23.2322C22.7757 22.7634 22.1398 22.5 21.4768 22.5ZM1.47681 2.5V5H3.97681L8.47681 14.4875L6.77681 17.55C6.58931 17.9 6.47681 18.3125 6.47681 18.75C6.47681 19.413 6.7402 20.0489 7.20904 20.5178C7.67788 20.9866 8.31377 21.25 8.97681 21.25H23.9768V18.75H9.50181C9.41893 18.75 9.33944 18.7171 9.28084 18.6585C9.22223 18.5999 9.18931 18.5204 9.18931 18.4375C9.18931 18.375 9.20181 18.325 9.22681 18.2875L10.3518 16.25H19.6643C20.6018 16.25 21.4268 15.725 21.8518 14.9625L26.3268 6.875C26.4143 6.675 26.4768 6.4625 26.4768 6.25C26.4768 5.91848 26.3451 5.60054 26.1107 5.36612C25.8763 5.1317 25.5583 5 25.2268 5H6.73931L5.56431 2.5M8.97681 22.5C7.58931 22.5 6.47681 23.6125 6.47681 25C6.47681 25.663 6.7402 26.2989 7.20904 26.7678C7.67788 27.2366 8.31377 27.5 8.97681 27.5C9.63985 27.5 10.2757 27.2366 10.7446 26.7678C11.2134 26.2989 11.4768 25.663 11.4768 25C11.4768 24.337 11.2134 23.7011 10.7446 23.2322C10.2757 22.7634 9.63985 22.5 8.97681 22.5Z" fill="#FAF8F8"/>
</g>
</svg>
